<svg width="400" height="400" viewBox="0 0 400 400" fill="none" xmlns="http://www.w3.org/2000/svg">
<rect width="400" height="400" rx="60" fill="#EF4B54"/>
<path fill-rule="evenodd" clip-rule="evenodd" d="M130.711 268.515C130.726 262.284 134.267 256.191 140.034 249.372L106.682 228.282C104.579 227.369 104.625 226.086 105.847 224.571L112.913 218.54C114.197 217.752 115.557 217.412 117.026 217.814L158.187 224.772L192.483 187.631L112.418 133.466C110.393 132.275 110.223 130.93 112.31 129.368L123.861 120.153L228.232 149.485L259.064 116.519C269.409 107.566 279.459 103.561 287.175 105.463C291.427 106.515 292.927 107.783 294.241 111.772C296.793 119.596 292.834 130.111 283.48 140.934L250.514 171.766L279.846 276.138L270.63 287.688C269.069 289.76 267.723 289.59 266.533 287.58L212.352 207.531L175.211 241.811L182.17 282.972C182.572 284.426 182.247 285.787 181.443 287.085L175.413 294.152C173.913 295.373 172.614 295.42 171.702 293.317L150.611 259.964C143.761 265.747 137.669 269.288 131.406 269.288C130.834 269.273 130.711 269.072 130.711 268.515Z" fill="white"/>
</svg>
