<svg width="400" height="400" viewBox="0 0 400 400" fill="none" xmlns="http://www.w3.org/2000/svg">
<rect width="400" height="400" rx="60" fill="#2255A4"/>
<g clip-path="url(#clip0_14_6569)">
<path d="M254.811 229.463C252.443 237.729 249.061 245.669 244.743 253.1H265.749C266.658 253.654 267.618 254.117 268.617 254.484C270.969 255.358 273.503 255.621 275.984 255.248C278.465 254.876 280.811 253.88 282.805 252.354L288.583 248.415C286.025 254.091 283.006 259.547 279.556 264.726C271.878 276.15 262.069 285.977 250.669 293.666C244.905 297.549 238.789 300.878 232.402 303.61C225.861 306.427 219.05 308.567 212.075 309.998C197.861 312.809 183.236 312.809 169.021 309.998C162.168 308.611 155.472 306.535 149.034 303.802L148.694 303.674C142.31 300.937 136.194 297.608 130.428 293.729C124.736 289.896 119.429 285.517 114.583 280.655C112.459 278.525 110.462 276.396 108.529 274.053C111.597 271.41 114.817 268.95 118.172 266.686C119.772 268.545 121.429 270.334 123.142 272.052C127.417 276.359 132.106 280.232 137.14 283.615C142.301 287.064 147.769 290.03 153.474 292.473L153.75 292.601C159.428 295.004 165.334 296.823 171.379 298.031C172.887 298.329 174.438 298.606 175.988 298.819C163.111 288.12 151.686 275.778 142.004 262.107H125.012C131.384 258.061 138.478 254.122 145.508 250.417C146.039 251.332 146.592 252.227 147.165 253.121H185.95V231.316L188.923 230.059C190.331 232.766 192.563 234.952 195.296 236.298V253.1H233.889C243.107 238.598 248.078 223.99 248.757 209.297L254.874 229.463H254.811ZM176.073 194.753C177.517 190.132 181.532 186.427 187.352 182.679L167.471 159.383C166.133 158.212 166.473 157.254 167.726 156.423L174.331 153.591C174.863 153.422 175.426 153.371 175.979 153.441C176.533 153.511 177.065 153.7 177.539 153.996L206.404 168.582L240.389 148.885L193.405 90.3253C192.194 88.9837 192.364 87.9403 194.255 87.2589L204.875 83L275.477 128.762L300.966 116.347C310.673 112.088 319.041 111.407 324.33 114.58C325.566 115.089 326.604 115.988 327.286 117.14C327.968 118.293 328.257 119.636 328.111 120.968C328.217 127.356 322.886 134.256 313.476 140.133L286.99 150.482L284.866 234.659L275.392 241.047C273.757 242.218 272.801 241.792 272.376 240.025L250.456 168.241L215.113 185.277L210.865 217.219C210.835 217.792 210.682 218.352 210.414 218.86C210.146 219.368 209.771 219.81 209.314 220.157L203.303 224.033C201.922 224.586 200.945 224.331 200.754 222.564L192.768 192.964C186.396 195.69 181.043 196.925 176.413 195.477C175.988 195.349 175.946 195.158 176.073 194.753ZM167.152 179.996C139.073 194.902 101.52 219.114 87.7138 233.232C42.557 279.845 77.7946 316.174 130.555 300.267C114.03 297.818 101.095 294.475 93.9159 289.747C63.2662 269.56 161.885 225.992 184.952 216.452L183.146 209.744C179.517 210.074 175.859 209.691 172.377 208.616L171.082 208.041C169.367 207.404 167.807 206.409 166.507 205.12C165.206 203.831 164.195 202.278 163.541 200.566L163.265 199.821C162.126 196.914 162.073 193.692 163.117 190.75C164.187 187.272 165.926 184.039 168.235 181.231L167.195 179.996H167.152ZM83.9967 217.453C83.5077 213.133 83.2666 208.789 83.2745 204.442C83.2679 197.192 83.9794 189.959 85.3986 182.849C86.7651 175.977 88.8291 169.263 91.5582 162.811L91.6857 162.492C94.4308 156.088 97.7583 149.95 101.626 144.158C105.437 138.454 109.798 133.141 114.646 128.293C119.493 123.43 124.8 119.052 130.492 115.218C136.258 111.34 142.373 108.01 148.758 105.274C155.301 102.46 162.111 100.32 169.085 98.8856C173.204 98.0641 177.367 97.4811 181.553 97.1395C182.029 97.8839 182.554 98.5953 183.125 99.2689L195.274 114.452V146.649H216.982L205.958 153.037L185.95 142.944V114.388C174.671 124.082 164.396 134.89 155.279 146.649H158.104C155.841 148.601 154.232 151.203 153.495 154.102C153.332 154.66 153.211 155.229 153.134 155.806V155.997H148.737C143.633 163.787 139.537 172.194 136.545 181.018C132.701 183.339 128.835 185.703 125.012 188.13C127.5 176.773 131.804 165.893 137.756 155.912H108.508C106.39 159.569 104.496 163.353 102.837 167.241L102.709 167.517C100.296 173.233 98.4806 179.185 97.2931 185.277C96.3423 190.066 95.76 194.921 95.5514 199.8H107.361C99.2676 205.274 91.4686 211.174 83.9967 217.474V217.453ZM248.63 209.148H225.669L226.922 199.779H245.826L248.651 209.148H248.63ZM239.05 262.086C229.359 275.756 217.935 288.103 205.066 298.819C206.617 298.585 208.146 298.308 209.675 298.01C215.809 296.769 221.801 294.907 227.559 292.452C233.266 290.013 238.734 287.048 243.893 283.593C248.927 280.21 253.616 276.337 257.891 272.03C261.052 268.934 263.984 265.61 266.663 262.086H239.05ZM195.253 294.943C207.274 285.282 218.136 274.256 227.623 262.086H195.253V294.943ZM185.95 262.086H153.558C163.058 274.252 173.927 285.278 185.95 294.943V262.086ZM143.809 146.649C153.379 133.196 164.469 120.898 176.859 110.001C175.032 110.257 173.227 110.555 171.443 110.917C165.296 112.134 159.295 113.997 153.537 116.475C147.833 118.918 142.365 121.883 137.203 125.333C132.169 128.716 127.481 132.589 123.206 136.896C120.15 139.936 117.311 143.188 114.71 146.628L143.809 146.649Z" fill="white"/>
</g>
<defs>
<clipPath id="clip0_14_6569">
<rect width="261" height="229" fill="white" transform="translate(67 83)"/>
</clipPath>
</defs>
</svg>
