<svg width="400" height="400" viewBox="0 0 400 400" fill="none" xmlns="http://www.w3.org/2000/svg">
<rect width="400" height="400" rx="60" fill="#27A9E3"/>
<path fill-rule="evenodd" clip-rule="evenodd" d="M168.347 179.518H168.271L155.758 210.551L151.511 191.093H153.214C154.763 191.093 156.026 189.831 156.026 188.281V183.708C156.026 182.159 154.763 180.896 153.214 180.896H143.035C141.485 180.896 140.223 182.159 140.223 183.708V188.281C140.223 189.831 141.485 191.093 143.035 191.093H144.776L140.395 210.283L128.514 179.518C114.604 180.111 100.121 192.184 91.6072 210.149C86.6136 220.691 85.2935 228.631 84.4708 239.9C82.8063 251.265 81.9453 262.515 82.0027 273.612C84.7386 290.888 106.645 285.761 108.501 273.612L111.16 238.791C111.562 233.529 111.926 229.971 114.049 224.958C115.044 222.605 116.25 220.596 117.666 218.931L118.986 282.546L118.239 287.865H178.487L177.684 281.934L178.851 211.776C184.954 209.307 190.254 208.16 194.903 207.968C194.674 208.447 194.425 208.925 194.195 209.403C189.202 219.945 187.882 227.885 187.059 239.154C185.413 250.5 184.533 261.749 184.591 272.846C187.327 290.123 209.233 284.995 211.089 272.846L213.749 238.025C214.15 232.764 214.514 229.205 216.638 224.193C217.632 221.839 218.838 219.83 220.254 218.166L221.574 281.781L220.694 287.98H281.19L280.272 281.188L281.209 226.431V227.502L281.401 218.185C282.817 219.849 284.003 221.858 285.017 224.212C287.16 229.224 287.504 232.783 287.906 238.044L290.565 272.865C290.852 274.683 291.579 276.348 292.612 277.782H315.514C316.222 276.405 316.757 274.76 317.064 272.865C317.121 261.749 316.26 250.519 314.596 239.173C313.773 227.904 312.453 219.964 307.459 209.422C298.716 190.959 287.408 181.183 270.247 179.174L258.155 209.805L254.08 191.074H256.031C257.581 191.074 258.844 189.812 258.844 188.262V183.689C258.844 182.139 257.581 180.877 256.031 180.877H245.834C244.284 180.877 243.021 182.139 243.021 183.689V188.262C243.021 189.812 244.284 191.074 245.834 191.074H247.001L242.792 209.537L231.312 178.963C228.672 179.327 226.07 179.863 223.544 180.628C216.944 179.71 208.219 178.581 199.514 178.543C186.772 178.523 174.106 180.705 168.347 179.518ZM250.942 112C268.18 112 282.166 125.986 282.166 143.224C282.166 160.462 268.18 174.448 250.942 174.448C233.704 174.448 219.718 160.462 219.718 143.224C219.718 125.986 233.704 112 250.942 112ZM148.124 112C165.363 112 179.348 125.986 179.348 143.224C179.348 160.462 165.363 174.448 148.124 174.448C130.886 174.448 116.9 160.462 116.9 143.224C116.9 125.986 130.886 112 148.124 112Z" fill="white"/>
</svg>
