<svg width="400" height="400" viewBox="0 0 400 400" fill="none" xmlns="http://www.w3.org/2000/svg">
<rect width="400" height="400" rx="60" fill="#28B779"/>
<path fill-rule="evenodd" clip-rule="evenodd" d="M129.36 269.689V191.27H164.64C179.509 193.948 194.547 202.069 209.5 211.486H236.9C249.305 212.251 255.783 224.814 243.74 233.083C234.139 240.141 221.459 239.737 208.481 238.568C199.517 238.121 199.114 250.196 208.481 250.217C211.709 250.472 215.235 249.707 218.336 249.707C234.543 249.707 247.903 246.603 256.08 233.764L260.18 224.176L300.94 203.961C321.331 197.243 335.753 218.671 320.885 233.423C292.439 254.205 262.009 272.12 230.04 286.907C207.567 300.597 185.074 300.129 162.58 286.907L129.36 269.689ZM188.578 102.966H220.035V93.9317C220.035 92.6238 220.555 91.3694 221.479 90.4445C222.403 89.5196 223.656 89 224.963 89H261.072C262.379 89 263.632 89.5196 264.556 90.4445C265.481 91.3694 266 92.6238 266 93.9317V102.966H297.457C298.374 102.979 299.28 103.173 300.123 103.538C300.965 103.902 301.726 104.431 302.363 105.092C303.695 106.39 304.459 108.163 304.487 110.024V127.263C296.846 132.519 288.749 137.079 280.295 140.89C271.616 144.803 262.554 147.802 253.255 149.839V143.334C253.255 141.947 252.705 140.617 251.725 139.636C250.745 138.656 249.416 138.105 248.03 138.105H238.047C236.662 138.105 235.333 138.656 234.353 139.636C233.373 140.617 232.822 141.947 232.822 143.334V149.711C223.753 147.681 214.914 144.733 206.442 140.911C197.754 136.986 189.443 132.275 181.612 126.838V109.832C181.617 107.985 182.353 106.215 183.658 104.908C184.964 103.602 186.732 102.865 188.578 102.86V102.966ZM257.164 95.7386H228.723C228.644 95.7363 228.566 95.7502 228.493 95.7794C228.42 95.8087 228.353 95.8527 228.298 95.9087C228.18 96.0277 228.111 96.1874 228.107 96.3551V102.732H257.843V96.3551C257.843 96.2716 257.826 96.189 257.794 96.1123C257.761 96.0355 257.713 95.9663 257.652 95.9087C257.587 95.8477 257.51 95.8011 257.426 95.7718C257.342 95.7425 257.253 95.7312 257.164 95.7386V95.7386ZM247.839 142.76H238.047C237.972 142.76 237.897 142.774 237.828 142.803C237.759 142.833 237.696 142.876 237.644 142.93C237.585 142.979 237.538 143.041 237.509 143.111C237.479 143.181 237.467 143.258 237.474 143.334V163.954C237.479 164.105 237.54 164.249 237.644 164.358C237.697 164.409 237.76 164.449 237.83 164.475C237.899 164.501 237.973 164.511 238.047 164.507H247.797C247.945 164.507 248.088 164.454 248.2 164.358C248.256 164.306 248.299 164.244 248.329 164.174C248.358 164.105 248.372 164.029 248.37 163.954V143.334C248.371 143.259 248.356 143.184 248.327 143.115C248.298 143.045 248.255 142.982 248.2 142.93C248.152 142.871 248.09 142.825 248.02 142.795C247.949 142.765 247.873 142.753 247.797 142.76H247.839ZM253.064 157.3C253.325 157.331 253.589 157.331 253.85 157.3C264.079 155.139 274.048 151.889 283.587 147.607C290.769 144.371 297.705 140.613 304.339 136.362V182.533C304.331 183.452 304.139 184.36 303.774 185.204C303.409 186.047 302.879 186.809 302.215 187.443C301.578 188.105 300.816 188.633 299.974 188.998C299.132 189.363 298.226 189.557 297.308 189.569H188.578C187.66 189.562 186.753 189.369 185.91 189.004C185.067 188.639 184.306 188.108 183.672 187.443C183.011 186.806 182.483 186.044 182.119 185.201C181.754 184.358 181.56 183.451 181.548 182.533V135.766C188.386 140.195 195.55 144.096 202.979 147.437C212.518 151.719 222.487 154.969 232.716 157.13H232.843V163.848C232.832 164.554 232.963 165.255 233.23 165.909C233.496 166.563 233.892 167.156 234.394 167.653C234.877 168.142 235.452 168.53 236.087 168.793C236.722 169.055 237.403 169.188 238.09 169.183H247.839C248.526 169.188 249.207 169.055 249.842 168.793C250.477 168.53 251.052 168.142 251.535 167.653C252.51 166.677 253.059 165.355 253.064 163.975V157.3V157.3ZM70.6092 183.723H114.131C115.355 183.729 116.527 184.22 117.391 185.088C118.255 185.957 118.74 187.132 118.74 188.358V273.026C118.734 274.248 118.247 275.418 117.384 276.282C116.521 277.146 115.351 277.633 114.131 277.639H70.6092C69.3885 277.633 68.2193 277.146 67.3562 276.282C66.493 275.418 66.0056 274.248 66 273.026V188.358C66 187.132 66.4849 185.957 67.3487 185.088C68.2125 184.22 69.3848 183.729 70.6092 183.723V183.723ZM92.3806 197.987C93.7375 197.987 95.0639 198.39 96.1922 199.144C97.3204 199.899 98.1997 200.971 98.719 202.226C99.2383 203.48 99.3741 204.861 99.1094 206.193C98.8447 207.525 98.1913 208.748 97.2318 209.708C96.2723 210.669 95.0499 211.323 93.719 211.588C92.3882 211.853 91.0088 211.717 89.7551 211.197C88.5015 210.677 87.43 209.797 86.6762 208.668C85.9223 207.539 85.5199 206.211 85.5199 204.853C85.5199 203.032 86.2428 201.286 87.5294 199.998C88.816 198.711 90.561 197.987 92.3806 197.987V197.987Z" fill="white"/>
</svg>
