<svg width="400" height="400" viewBox="0 0 400 400" fill="none" xmlns="http://www.w3.org/2000/svg">
<rect width="400" height="400" rx="60" fill="#27A9E3"/>
<path fill-rule="evenodd" clip-rule="evenodd" d="M168.347 182.518H168.271L155.758 213.551L151.511 194.093H153.214C154.763 194.093 156.026 192.831 156.026 191.281V186.708C156.026 185.159 154.763 183.896 153.214 183.896H143.035C141.485 183.896 140.223 185.159 140.223 186.708V191.281C140.223 192.831 141.485 194.093 143.035 194.093H144.776L140.395 213.283L128.514 182.518C114.604 183.111 100.121 195.184 91.6072 213.149C86.6136 223.691 85.2935 231.631 84.4708 242.9C82.8063 254.265 81.9453 265.515 82.0027 276.612C84.7386 293.888 106.645 288.761 108.501 276.612L111.16 241.791C111.562 236.529 111.926 232.971 114.049 227.958C115.044 225.605 116.25 223.596 117.666 221.931L118.986 285.546L118.239 290.865H178.487L177.684 284.934L178.851 214.776C184.954 212.307 190.254 211.16 194.903 210.968C194.674 211.447 194.425 211.925 194.195 212.403C189.202 222.945 187.882 230.885 187.059 242.154C185.413 253.5 184.533 264.749 184.591 275.846C187.327 293.123 209.233 287.995 211.089 275.846L213.749 241.025C214.15 235.764 214.514 232.205 216.638 227.193C217.632 224.839 218.838 222.83 220.254 221.166L221.574 284.781L220.694 290.98H281.19L280.272 284.188L281.209 229.431V230.502L281.401 221.185C282.817 222.849 284.003 224.858 285.017 227.212C287.16 232.224 287.504 235.783 287.906 241.044L290.565 275.865C290.852 277.683 291.579 279.348 292.612 280.782H315.514C316.222 279.405 316.757 277.76 317.064 275.865C317.121 264.749 316.26 253.519 314.596 242.173C313.773 230.904 312.453 222.964 307.459 212.422C298.716 193.959 287.408 184.183 270.247 182.174L258.155 212.805L254.08 194.074H256.031C257.581 194.074 258.844 192.812 258.844 191.262V186.689C258.844 185.139 257.581 183.877 256.031 183.877H245.834C244.284 183.877 243.021 185.139 243.021 186.689V191.262C243.021 192.812 244.284 194.074 245.834 194.074H247.001L242.792 212.537L231.312 181.963C228.672 182.327 226.07 182.863 223.544 183.628C216.944 182.71 208.219 181.581 199.514 181.543C186.772 181.523 174.106 183.705 168.347 182.518ZM250.942 115C268.18 115 282.166 128.986 282.166 146.224C282.166 163.462 268.18 177.448 250.942 177.448C233.704 177.448 219.718 163.462 219.718 146.224C219.718 128.986 233.704 115 250.942 115ZM148.124 115C165.363 115 179.348 128.986 179.348 146.224C179.348 163.462 165.363 177.448 148.124 177.448C130.886 177.448 116.9 163.462 116.9 146.224C116.9 128.986 130.886 115 148.124 115Z" fill="white"/>
</svg>
