<svg width="400" height="400" viewBox="0 0 400 400" fill="none" xmlns="http://www.w3.org/2000/svg">
<rect width="400" height="400" rx="100" fill="#FF9901"/>
<path d="M164 97.9062C161.48 97.9062 158.96 99.5937 158.96 102.969C158.96 105.5 161.48 107.187 164 107.187C176.6 107.187 187.52 117.313 187.52 130.813C187.52 133.344 189.2 135.875 192.56 135.875C195.08 135.875 197.6 134.188 197.6 130.813C196.76 112.25 181.64 97.9062 164 97.9062Z" fill="white"/>
<path d="M264.8 200C253.88 200 243.8 202.531 234.56 207.594C228.68 196.625 220.28 188.188 209.36 179.75L208.52 178.906C221.12 167.094 228.68 150.219 228.68 130.813C229.52 94.5312 200.12 65 164 65C127.88 65 98.48 94.5312 98.48 130.813C98.48 149.375 106.88 167.094 119.48 178.906H118.64C95.96 198.312 84.2 210.969 80 264.125C80 270.031 82.52 279.312 95.12 286.906C110.24 295.344 137.12 300.406 164 300.406C178.28 300.406 191.72 299.563 204.32 297.031C215.24 319.813 237.92 335.844 264.8 335.844C301.76 335.844 332 305.469 332 268.344C332 230.375 301.76 200 264.8 200ZM104.36 270.875C102.68 270.031 98.48 266.656 98.48 264.969C101.84 217.719 111.92 209.281 130.4 193.25L134.6 189.875C136.28 190.719 137.96 190.719 138.8 191.562L153.92 212.656L135.44 255.688L155.6 281C135.44 280.156 116.12 276.781 104.36 270.875ZM164 178.062C137.96 178.062 116.96 156.969 116.96 130.813C116.96 104.656 137.96 83.5625 164 83.5625C190.04 83.5625 211.04 104.656 211.04 130.813C210.2 156.969 189.2 178.062 164 178.062ZM171.56 281L191.72 255.688L173.24 212.656L188.36 191.562C190.04 190.719 190.88 189.875 192.56 189.875L196.76 193.25C206 201.687 213.56 207.594 218.6 217.719C215.24 221.094 211.88 224.469 209.36 228.687C206 221.094 200.96 215.187 193.4 210.969C190.88 210.125 188.36 210.969 187.52 212.656C186.68 215.188 187.52 217.719 189.2 218.563C196.76 222.781 200.96 230.375 203.48 238.813C199.28 247.25 197.6 256.531 197.6 266.656C197.6 270.031 197.6 274.25 198.44 277.625C190.04 280.156 180.8 281 171.56 281ZM264.8 318.125C237.08 318.125 214.4 295.344 214.4 267.5C214.4 239.656 237.08 216.875 264.8 216.875C292.52 216.875 315.2 239.656 315.2 267.5C315.2 295.344 292.52 318.125 264.8 318.125Z" fill="white"/>
<path d="M293.36 259.062H273.2V238.812C273.2 233.75 269.84 230.375 264.8 230.375C259.76 230.375 256.4 233.75 256.4 238.812V259.062H236.24C231.2 259.062 227.84 262.437 227.84 267.5C227.84 272.562 231.2 275.937 236.24 275.937H256.4V296.187C256.4 301.25 259.76 304.625 264.8 304.625C269.84 304.625 273.2 301.25 273.2 296.187V275.937H293.36C298.4 275.937 301.76 272.562 301.76 267.5C301.76 262.437 298.4 259.062 293.36 259.062Z" fill="white"/>
</svg>
