<svg width="400" height="400" viewBox="0 0 400 400" fill="none" xmlns="http://www.w3.org/2000/svg">
<rect width="400" height="400" rx="60" fill="#F9A435"/>
<path fill-rule="evenodd" clip-rule="evenodd" d="M173.907 206.027C174.477 201.304 160.399 183.204 157.827 174.536C152.31 165.803 150.357 151.908 156.362 142.672C158.755 139.003 157.729 135.822 157.729 130.741C157.729 80.4198 246.057 80.4198 246.057 130.741C246.057 137.104 244.608 138.597 248.042 143.613C253.82 151.973 250.858 166.81 245.975 174.569C242.834 183.675 228.072 200.898 229.098 206.06C230.025 231.853 173.761 231.026 173.907 206.06V206.027ZM206.1 250.667H209.209C210.557 250.663 211.849 250.126 212.801 249.173C213.752 248.221 214.287 246.931 214.287 245.586V237.47C214.287 236.805 214.156 236.146 213.9 235.532C213.645 234.917 213.271 234.359 212.8 233.889C212.328 233.418 211.768 233.045 211.152 232.791C210.536 232.536 209.876 232.405 209.209 232.405H190.801C189.456 232.41 188.167 232.945 187.215 233.893C186.264 234.842 185.728 236.128 185.723 237.47V245.586C185.732 246.927 186.27 248.21 187.22 249.158C188.171 250.106 189.457 250.642 190.801 250.651H193.959L187.888 281.298H211.911L206.1 250.667ZM100 281.298C102.393 250.456 96.3217 251.738 122.216 242.08C134.937 237.219 147.126 231.073 158.592 223.737L180.727 281.298H100ZM242.476 221.075C252.904 228.036 264.175 233.649 276.02 237.778C300.189 245.83 300.189 246.95 299.961 281.298H219.544L242.476 221.075Z" fill="white"/>
</svg>
