<svg width="38" height="38" viewBox="0 0 38 38" fill="none"
	xmlns="http://www.w3.org/2000/svg">
	<circle cx="19" cy="19" r="19" fill="#DADADA" fill-opacity="0.5"/>
	<path fill-rule="evenodd" clip-rule="evenodd" d="M12.8 26C12.5 26 12.35 26 12.05 25.85C11.9 25.85 11.75 25.7 11.45 25.55C11.15 25.25 11 24.65 11 24.35C11 23.9 11.15 23.45 11.45 23.15L16.1 18.5L11.45 13.85C11.15 13.55 11 13.1 11 12.65C11 12.2 11.15 11.75 11.45 11.45C11.9 11.15 12.35 11 12.8 11C13.25 11 13.7 11.15 13.85 11.45L18.5 16.1L23.15 11.45C23.45 11.15 23.9 11 24.35 11C24.8 11 25.25 11.15 25.55 11.45C25.85 11.9 26 12.35 26 12.65C26 13.1 25.85 13.55 25.55 13.85L20.9 18.5L25.55 23.15C25.85 23.45 26 23.9 26 24.35C26 24.8 25.85 25.25 25.55 25.55C25.4 25.7 25.25 25.85 24.95 25.85C24.8 26 24.5 26 24.35 26C24.2 26 23.9 26 23.75 25.85C23.45 25.85 23.3 25.7 23.15 25.55L18.5 20.9L13.85 25.55C13.7 25.7 13.55 25.85 13.4 25.85C13.1 26 12.95 26 12.8 26Z" fill="black"/>
</svg>
