<svg width="15" height="17" viewBox="0 0 15 17" fill="none" xmlns="http://www.w3.org/2000/svg">
<g clip-path="url(#clip0_1325_4345)">
<path fill-rule="evenodd" clip-rule="evenodd" d="M0 16.3202C0 16.5602 0 16.6802 0.12 16.8002C0.24 16.9202 0.48 16.9202 0.6 16.9202L4.56 15.2402L1.08 12.2402L0 16.3202Z" fill="white"/>
<path fill-rule="evenodd" clip-rule="evenodd" d="M1.56 11.6399L5.04 14.7599L12.24 6.35986L8.64 3.35986L1.56 11.6399Z" fill="white"/>
<path fill-rule="evenodd" clip-rule="evenodd" d="M9.84 2.04004L13.32 5.04004L12.48 6.00004L9 3.00004L9.84 2.04004Z" fill="white"/>
<path fill-rule="evenodd" clip-rule="evenodd" d="M14.64 1.92001L12.6 0.240011C12.24 -0.119989 11.52 -0.119989 11.16 0.360011L10.2 1.68001L13.68 4.68001L14.76 3.36001C14.88 3.12001 15 2.88001 15 2.64001C15 2.40001 14.88 2.16001 14.64 1.92001Z" fill="white"/>
</g>
<defs>
<clipPath id="clip0_1325_4345">
<rect width="15" height="16.92" fill="white"/>
</clipPath>
</defs>
</svg>
