<svg width="86" height="60" viewBox="0 0 86 60" fill="none"
	xmlns="http://www.w3.org/2000/svg">
	<path d="M85.8722 52.8C85.8722 56.7724 82.6624 60.0828 78.6297 60.0828H8.42705C4.47661 60.0828 1.18457 56.8552 1.18457 52.8V7.28276C1.18457 3.31034 4.3943 0 8.42705 0H78.6297C82.5801 0 85.8722 3.22759 85.8722 7.28276V52.8Z" fill="#D7D3CF"/>
	<path d="M85.7366 11.3516H0.894531V22.7029H85.7366V11.3516Z" fill="white"/>
	<path d="M51.8 28.3862H7.02832V36.6621H51.8V28.3862Z" fill="#222222"/>
	<path d="M39.4545 45.5173H7.43945V53.7932H39.4545V45.5173Z" fill="white"/>
	<path d="M80.4408 45.5173H48.4258V46.8415H80.4408V45.5173Z" fill="#222222"/>
	<path d="M80.4408 48.5793H48.4258V49.9035H80.4408V48.5793Z" fill="#222222"/>
	<path d="M80.4408 51.3933H48.4258V52.7174H80.4408V51.3933Z" fill="#222222"/>
	<path d="M78.9588 28.6345H57.5605V36.9104H78.9588V28.6345Z" fill="#222222"/>
	<path d="M77.5603 39.8897H59.0426C56.6559 39.8897 54.6807 37.9035 54.6807 35.5035V29.3794C54.6807 26.9794 56.6559 24.9932 59.0426 24.9932H77.478C79.8647 24.9932 81.84 26.9794 81.84 29.3794V35.5035C81.84 37.9035 79.947 39.8897 77.5603 39.8897Z" stroke="#222222" stroke-width="2" stroke-miterlimit="10"/>
</svg>
