<svg width="34" height="31" viewBox="0 0 34 31" fill="none" xmlns="http://www.w3.org/2000/svg">
<path fill-rule="evenodd" clip-rule="evenodd" d="M2.62836 0.700121C1.65497 0.827108 0.885455 1.49255 0.579754 2.4716L0.5 2.72701V15.5142V28.3014L0.579754 28.5568C0.847417 29.4141 1.4344 30.0012 2.28837 30.2657L2.54323 30.3447L15.7221 30.3548C24.808 30.3617 28.9987 30.3537 29.2157 30.3289C30.1888 30.2179 30.9746 29.58 31.2941 28.642L31.3868 28.3695L31.396 24.0021L31.4051 19.6347H29.7885H28.1718L28.1599 22.2994C28.1465 25.2606 28.1551 25.1449 27.9114 25.6516C27.6094 26.2794 27.056 26.748 26.3633 26.9624L26.1085 27.0413L16.1307 27.0512C9.45255 27.0578 6.06498 27.0496 5.88691 27.0262C5.3113 26.9506 4.9032 26.7443 4.46196 26.3058C4.21456 26.0599 4.1423 25.9615 4.01197 25.6928C3.72871 25.1089 3.7532 26.126 3.75265 14.9307C3.75218 5.68659 3.75643 4.91803 3.80894 4.75542C3.92129 4.4076 4.23145 4.16081 4.70119 4.0455C4.90408 3.99572 5.4864 3.98894 10.4352 3.97896L15.9434 3.96782V2.31727V0.666748L9.37954 0.671209C5.76942 0.673661 2.73138 0.68667 2.62836 0.700121ZM23.3929 3.92066L23.3842 7.154L22.4477 7.17502C19.92 7.23175 17.6755 7.6577 15.6199 8.47076C11.6842 10.0274 8.80648 13.0794 7.40288 17.1854C7.10052 18.07 6.82557 19.2136 6.73628 19.9582L6.71585 20.1285L6.87709 19.9416C9.05235 17.4198 11.8136 15.591 14.9899 14.5683C16.6608 14.0303 18.3853 13.729 20.3137 13.6382C21.3086 13.5914 22.8524 13.6545 23.3244 13.7614L23.4009 13.7787L23.4095 16.9753L23.4182 20.1719L26.6874 17.123C28.4854 15.4461 30.8352 13.2547 31.9091 12.2532C32.983 11.2518 33.8488 10.4211 33.8331 10.4073C33.7837 10.3637 23.6627 0.935433 23.5291 0.808446L23.4015 0.687317L23.3929 3.92066Z" />
</svg>
