<svg width="12" height="12" viewBox="0 0 12 12" fill="none" xmlns="http://www.w3.org/2000/svg">
<g clip-path="url(#clip0_99_477)">
<path d="M10.744 12C10.4232 12 10.1025 11.8797 9.86199 11.6258L0.374242 2.1381C-0.12019 1.64367 -0.12019 0.855246 0.374242 0.360814C0.868674 -0.133618 1.65709 -0.133618 2.15152 0.360814L11.6393 9.84856C12.1337 10.343 12.1337 11.1314 11.6393 11.6258C11.3854 11.8797 11.0647 12 10.744 12Z" fill="#E01C1C"/>
<path d="M1.2562 12C0.935489 12 0.614776 11.8797 0.374242 11.6258C-0.12019 11.1314 -0.12019 10.343 0.374242 9.84856L9.86199 0.360814C10.3564 -0.133618 11.1448 -0.133618 11.6393 0.360814C12.1337 0.855246 12.1337 1.64367 11.6393 2.1381L2.15152 11.6258C1.89763 11.8797 1.57691 12 1.2562 12Z" fill="#E01C1C"/>
</g>
<defs>
<clipPath id="clip0_99_477">
<rect width="12" height="12" fill="white"/>
</clipPath>
</defs>
</svg>
