<svg width="45" height="45" viewBox="0 0 45 45" fill="none" xmlns="http://www.w3.org/2000/svg">
<g clip-path="url(#clip0_99_491)">
<path fill-rule="evenodd" clip-rule="evenodd" d="M22.5 0C26.9501 0 31.3002 1.3196 35.0003 3.79193C38.7004 6.26427 41.5843 9.77829 43.2873 13.8896C44.9903 18.001 45.4358 22.525 44.5677 26.8895C43.6995 31.2541 41.5566 35.2632 38.4099 38.4099C35.2632 41.5566 31.2541 43.6995 26.8895 44.5677C22.525 45.4358 18.001 44.9903 13.8896 43.2873C9.77829 41.5843 6.26427 38.7004 3.79193 35.0003C1.3196 31.3002 0 26.9501 0 22.5C0 16.5326 2.37053 10.8097 6.5901 6.5901C10.8097 2.37053 16.5326 0 22.5 0ZM12.5354 18.4058C12.5354 18.564 12.5042 18.7207 12.4437 18.8668C12.3831 19.013 12.2944 19.1458 12.1825 19.2577C12.0706 19.3696 11.9378 19.4583 11.7916 19.5189C11.6455 19.5794 11.4888 19.6106 11.3306 19.6106C11.1723 19.6106 11.0157 19.5794 10.8695 19.5189C10.7233 19.4583 10.5905 19.3696 10.4786 19.2577C10.3667 19.1458 10.278 19.013 10.2174 18.8668C10.1569 18.7207 10.1257 18.564 10.1257 18.4058V12.9346C10.1243 12.7754 10.1544 12.6176 10.2143 12.4701C10.2742 12.3227 10.3627 12.1886 10.4747 12.0755C10.5867 11.9625 10.72 11.8727 10.8669 11.8115C11.0138 11.7503 11.1714 11.7187 11.3306 11.7188H16.9043C17.2238 11.7188 17.5303 11.8457 17.7562 12.0716C17.9822 12.2976 18.1091 12.604 18.1091 12.9236C18.1091 13.2431 17.9822 13.5496 17.7562 13.7755C17.5303 14.0015 17.2238 14.1284 16.9043 14.1284H14.2419L19.043 18.9148C19.1548 19.0261 19.2436 19.1584 19.3043 19.304C19.365 19.4497 19.3964 19.6059 19.3967 19.7636C19.3971 19.9214 19.3663 20.0777 19.3062 20.2236C19.2462 20.3696 19.158 20.5022 19.0466 20.614C18.9353 20.7258 18.803 20.8146 18.6574 20.8753C18.5117 20.936 18.3556 20.9674 18.1978 20.9678C18.04 20.9681 17.8837 20.9374 17.7378 20.8773C17.5919 20.8172 17.4592 20.729 17.3474 20.6177L12.5354 15.835V18.3984V18.4058ZM17.4243 31.4941C17.7328 31.5111 18.0231 31.6457 18.2355 31.8701C18.4479 32.0945 18.5663 32.3918 18.5663 32.7008C18.5663 33.0098 18.4479 33.3071 18.2355 33.5315C18.0231 33.7559 17.7328 33.8905 17.4243 33.9075H11.9531C11.6336 33.9075 11.3271 33.7805 11.1012 33.5546C10.8752 33.3286 10.7483 33.0222 10.7483 32.7026V27.0996C10.7483 26.7801 10.8752 26.4736 11.1012 26.2477C11.3271 26.0217 11.6336 25.8948 11.9531 25.8948C12.2727 25.8948 12.5791 26.0217 12.8051 26.2477C13.031 26.4736 13.158 26.7801 13.158 27.0996V29.773L17.9443 24.9866C18.0557 24.8748 18.1879 24.786 18.3336 24.7253C18.4792 24.6646 18.6354 24.6332 18.7932 24.6328C18.951 24.6325 19.1073 24.6632 19.2532 24.7233C19.3991 24.7834 19.5317 24.8716 19.6436 24.9829C19.7554 25.0942 19.8442 25.2265 19.9049 25.3722C19.9655 25.5178 19.997 25.674 19.9973 25.8318C19.9976 25.9895 19.9669 26.1459 19.9068 26.2918C19.8468 26.4377 19.7585 26.5703 19.6472 26.6821L14.8535 31.4941H17.4243ZM32.4646 26.5942C32.4646 26.2747 32.5915 25.9682 32.8175 25.7423C33.0434 25.5163 33.3499 25.3894 33.6694 25.3894C33.989 25.3894 34.2954 25.5163 34.5214 25.7423C34.7473 25.9682 34.8743 26.2747 34.8743 26.5942V32.0654C34.8743 32.385 34.7473 32.6914 34.5214 32.9174C34.2954 33.1433 33.989 33.2703 33.6694 33.2703H28.0957C27.7762 33.2703 27.4697 33.1433 27.2438 32.9174C27.0178 32.6914 26.8909 32.385 26.8909 32.0654C26.8909 31.7459 27.0178 31.4394 27.2438 31.2135C27.4697 30.9875 27.7762 30.8606 28.0957 30.8606H30.7617L25.9717 26.0999C25.7459 25.875 25.6186 25.5697 25.6179 25.251C25.6172 24.9323 25.7432 24.6264 25.968 24.4006C26.1929 24.1748 26.4982 24.0476 26.8169 24.0469C27.1355 24.0462 27.4414 24.1721 27.6672 24.397L32.4646 29.165V26.6016V26.5942ZM27.5757 13.5205C27.2672 13.5035 26.9769 13.369 26.7645 13.1445C26.5521 12.9201 26.4337 12.6228 26.4337 12.3138C26.4337 12.0048 26.5521 11.7076 26.7645 11.4832C26.9769 11.2587 27.2672 11.1242 27.5757 11.1072H33.0469C33.3664 11.1072 33.6729 11.2341 33.8988 11.4601C34.1248 11.686 34.2517 11.9925 34.2517 12.312V17.8857C34.2517 18.2053 34.1248 18.5117 33.8988 18.7377C33.6729 18.9636 33.3664 19.0906 33.0469 19.0906C32.7273 19.0906 32.4209 18.9636 32.1949 18.7377C31.969 18.5117 31.842 18.2053 31.842 17.8857V15.2271L27.0813 20.0134C26.9695 20.1262 26.8366 20.2158 26.6901 20.2773C26.5436 20.3387 26.3865 20.3706 26.2277 20.3713C26.0689 20.372 25.9115 20.3414 25.7645 20.2812C25.6176 20.2211 25.4839 20.1326 25.3711 20.0208C25.2583 19.9089 25.1687 19.776 25.1073 19.6295C25.0459 19.4831 25.0139 19.326 25.0132 19.1672C25.0126 19.0084 25.0432 18.851 25.1033 18.704C25.1635 18.557 25.252 18.4233 25.3638 18.3105L30.1465 13.5132L27.5757 13.5205Z" fill="white"/>
</g>
<defs>
<clipPath id="clip0_99_491">
<rect width="45" height="45" fill="white"/>
</clipPath>
</defs>
</svg>
