<svg width="21" height="20" viewBox="0 0 21 20"   xmlns="http://www.w3.org/2000/svg">
    <path d="M5.536 8.21995C6.21163 9.4387 6.99032 10.6084 8.00131 11.675C9.01557 12.7481 10.2769 13.7248 11.9095 14.5591C12.0305 14.618 12.1451 14.618 12.2481 14.5771C12.4035 14.5182 12.5622 14.389 12.7176 14.2335C12.8387 14.1125 12.9892 13.9194 13.1462 13.7084C13.7744 12.8823 14.5515 11.8566 15.6492 12.3702C15.6737 12.3817 15.6917 12.3948 15.7162 12.4046L19.3774 14.51C19.3888 14.5166 19.4019 14.528 19.4117 14.5345C19.8943 14.8666 20.0939 15.3787 20.0988 15.9594C20.0988 16.55 19.8813 17.2142 19.5623 17.7753C19.1402 18.5163 18.5185 19.0071 17.802 19.331C17.1198 19.6451 16.3608 19.8136 15.6312 19.9216C14.486 20.0901 13.4129 19.9821 12.3152 19.6451C11.242 19.313 10.1607 18.765 8.97958 18.0354L8.89288 17.9798C8.3514 17.6411 7.76574 17.2796 7.19154 16.8526C5.09104 15.2658 2.94964 12.9739 1.55421 10.4513C0.38454 8.33447 -0.253463 6.04911 0.094985 3.87172C0.288022 2.67751 0.80006 1.59127 1.69326 0.874742C2.47195 0.246554 3.52057 -0.0969859 4.87837 0.0240711C5.03378 0.0355224 5.17283 0.125497 5.24645 0.259641L7.59397 4.22835C7.93751 4.67331 7.98005 5.11501 7.79192 5.5567C7.63651 5.91824 7.32241 6.25196 6.8938 6.56278C6.76784 6.67075 6.61734 6.78036 6.45865 6.89487C5.93353 7.27604 5.33642 7.7161 5.54091 8.23304L5.536 8.21995Z"  />
    </svg>
    