<svg width="20" height="21" viewBox="0 0 20 21"  xmlns="http://www.w3.org/2000/svg">
<path d="M19.7555 19.2719L16.3182 15.8426L16.2376 15.7176C16.0878 15.5654 15.883 15.4797 15.6692 15.4797C15.4554 15.4797 15.2505 15.5654 15.1007 15.7176C12.1795 18.4523 7.67815 18.601 4.58201 16.0649C1.48586 13.5289 0.755668 9.0952 2.87568 5.70418C4.9957 2.31317 9.30807 1.01712 12.9528 2.67558C16.5976 4.33404 18.4438 8.43237 17.267 12.2526C17.1823 12.5286 17.2515 12.8287 17.4487 13.0399C17.6459 13.2511 17.9411 13.3413 18.223 13.2766C18.505 13.2118 18.7309 13.0019 18.8156 12.7259C20.2224 8.19242 18.0977 3.31376 13.8161 1.24591C9.53449 -0.821946 4.38084 0.541587 1.68905 4.45444C-1.00273 8.36729 -0.424821 13.6552 3.04893 16.8974C6.52268 20.1396 11.8498 20.3631 15.5841 17.4233L18.6277 20.4596C18.942 20.7719 19.4502 20.7719 19.7645 20.4596C20.0785 20.143 20.0785 19.6332 19.7645 19.3165L19.7555 19.2719Z" />
</svg>
