<svg width="18" height="18" viewBox="0 0 18 18"  xmlns="http://www.w3.org/2000/svg">
<path fill-rule="evenodd" clip-rule="evenodd" d="M0.152228 11.7132L9.4778 2.38767C9.55837 2.39792 9.64334 2.37302 9.70486 2.3115C9.76639 2.24997 9.79276 2.165 9.78104 2.08444L11.7132 0.152228C11.9169 -0.0513937 12.2494 -0.0513937 12.453 0.152228L13.9809 1.68159C13.5795 2.3364 13.663 3.20362 14.2299 3.77054C14.7969 4.33746 15.6641 4.41949 16.3189 4.01957L17.8468 5.54747C18.0504 5.75109 18.0504 6.08362 17.8468 6.28724L15.9146 8.21945C15.834 8.2092 15.7505 8.2341 15.6875 8.29563C15.626 8.35715 15.5996 8.44212 15.6114 8.52269L6.28724 17.8468C6.08362 18.0504 5.75109 18.0504 5.54747 17.8468L4.02836 16.3292C4.4649 15.6685 4.39166 14.772 3.81156 14.1904C3.22999 13.6088 2.33347 13.5371 1.6728 13.9736L0.152228 12.453C-0.0513937 12.2494 -0.0513937 11.9169 0.152228 11.7132ZM14.9814 7.58954C15.0869 7.48407 15.2583 7.48407 15.3638 7.58954C15.4693 7.69502 15.4693 7.86641 15.3638 7.97188C15.2583 8.07735 15.0869 8.07735 14.9814 7.97188C14.876 7.86641 14.876 7.69502 14.9814 7.58954ZM14.2739 6.88199C14.3794 6.77652 14.5508 6.77652 14.6562 6.88199C14.7617 6.98747 14.7617 7.15886 14.6562 7.26433C14.5508 7.36981 14.3794 7.36981 14.2739 7.26433C14.1684 7.15886 14.1684 6.98747 14.2739 6.88199ZM13.5663 6.17445C13.6718 6.06897 13.8432 6.06897 13.9487 6.17445C14.0542 6.27992 14.0542 6.45131 13.9487 6.55679C13.8432 6.66226 13.6718 6.66226 13.5663 6.55679C13.4609 6.45131 13.4609 6.27992 13.5663 6.17445ZM12.8588 5.4669C12.9643 5.36142 13.1357 5.36142 13.2411 5.4669C13.3466 5.57237 13.3466 5.74376 13.2411 5.84924C13.1357 5.95471 12.9643 5.95471 12.8588 5.84924C12.7533 5.74376 12.7533 5.57237 12.8588 5.4669ZM12.1513 4.75935C12.2567 4.65388 12.4281 4.65388 12.5336 4.75935C12.6391 4.86482 12.6391 5.03622 12.5336 5.14169C12.4281 5.24716 12.2567 5.24716 12.1513 5.14169C12.0458 5.03622 12.0458 4.86482 12.1513 4.75935ZM11.4437 4.0518C11.5492 3.94633 11.7206 3.94633 11.826 4.0518C11.9315 4.15727 11.9315 4.32867 11.826 4.43414C11.7206 4.53961 11.5492 4.53961 11.4437 4.43414C11.3382 4.32867 11.3382 4.15727 11.4437 4.0518ZM10.7362 3.34425C10.8416 3.23878 11.013 3.23878 11.1185 3.34425C11.224 3.44973 11.224 3.62112 11.1185 3.72659C11.013 3.83207 10.8416 3.83207 10.7362 3.72659C10.6307 3.62112 10.6307 3.44973 10.7362 3.34425ZM10.0286 2.6367C10.1341 2.53123 10.3055 2.53123 10.4109 2.6367C10.5164 2.74218 10.5164 2.91357 10.4109 3.01904C10.3055 3.12452 10.1341 3.12452 10.0286 3.01904C9.92313 2.91357 9.92313 2.74218 10.0286 2.6367ZM3.72806 10.9735L9.49685 5.20468C9.73416 4.96736 10.1224 4.96736 10.3597 5.20468L13.0111 7.85615C13.2485 8.09347 13.2485 8.48167 13.0111 8.71898L7.24236 14.4878C7.00505 14.7251 6.61685 14.7251 6.37953 14.4878L3.72806 11.8363C3.49074 11.599 3.49074 11.2108 3.72806 10.9735Z" />
</svg>
