<svg width="475" height="512" viewBox="0 0 475 512" xmlns="http://www.w3.org/2000/svg">
<path fill-rule="evenodd" clip-rule="evenodd" d="M80.0303 1.05137C46.1063 6.67237 16.5343 31.0824 5.58428 62.4994C-0.284721 79.3374 0.00227786 69.4034 0.00227786 255.91C0.00227786 408.232 0.176278 427.84 1.58928 434.702C6.19028 457.053 16.9753 475.336 33.9583 489.57C41.9493 496.268 57.1883 504.735 66.0023 507.376C80.5453 511.731 84.1733 511.907 159.502 511.907C226.075 511.907 231.76 511.775 234.931 510.158C244.59 505.233 245.529 491.976 236.68 485.481C233.902 483.442 232.699 483.401 159.18 482.86C76.2473 482.25 79.7793 482.534 65.3473 475.312C49.4453 467.356 37.4083 453.06 31.7473 435.41L29.5023 428.41V255.91V83.4104L31.7393 76.4104C37.3613 58.8174 49.8143 44.0474 65.5023 36.3674C79.9713 29.2834 76.3493 29.5674 160.047 28.9594C230.642 28.4464 235.773 28.2924 238.345 26.6064C247.664 20.4974 246.907 6.64837 236.982 1.66237C233.756 0.0413723 228.097 -0.0776276 159.502 0.0283724C118.802 0.0923724 83.0403 0.552372 80.0303 1.05137ZM360.022 149.662C351.849 153.768 349.419 164.135 354.9 171.51C356.494 173.655 372.472 190.035 390.406 207.91L423.014 240.41L272.758 240.91C127.107 241.395 122.405 241.469 119.346 243.32C109.468 249.298 109.854 263.438 120.038 268.66L124.426 270.91H274.459H424.492L388.586 306.826L352.68 342.742L352.286 348.076C351.98 352.203 352.354 354.148 353.937 356.669C357.854 362.907 364.928 365.376 371.687 362.864C374.867 361.682 470.345 266.891 472.567 262.71C475.009 258.115 474.404 251.751 471.103 247.31C469.508 245.165 447.346 222.613 421.853 197.195C369.58 145.076 369.41 144.945 360.022 149.662Z"/>
</svg>
