<svg width="45" height="30" viewBox="0 0 45 30" fill="none" xmlns="http://www.w3.org/2000/svg">
    <path fill-rule="evenodd" clip-rule="evenodd" d="M10.542 15.0267L10.5021 17.3457H14.8769C15.804 17.3457 16.5609 18.0701 16.5609 18.9575V20.5694H16.5427V26.8712C16.5427 27.7586 15.7859 28.4831 14.8588 28.4831H13.1748V21.1517C13.1748 20.4862 13.3052 20.5694 12.6352 20.5694H8.3039V20.559H6.1455C4.75485 20.559 3.61409 19.4671 3.61409 18.136V10.198C3.61409 8.84268 4.77296 7.73345 6.18896 7.73345H7.46372C9.4845 7.73345 9.68368 8.65897 10.1979 9.62608L12.3491 10.4372C13.9063 11.1097 13.508 11.2414 14.5654 9.98658L15.9416 8.35739C16.6152 7.32788 19.277 8.40246 18.1362 10.1322L16.1408 12.7389C15.3114 13.8238 14.2069 13.9764 12.8706 13.446L10.5456 12.6626V15.0267H10.542ZM43.1171 26.9752C43.1026 26.8747 43.0592 26.7811 42.9795 26.7048C42.3964 26.1433 41.6613 25.6857 40.8211 25.3703C40.2344 25.1519 39.5934 25.0029 38.9235 24.937L39.0502 23.0166H43.6169C44.0913 23.0166 44.4824 22.6423 44.4824 22.1882C44.4824 18.7565 43.6386 16.1775 44.4824 12.2709C44.7323 11.1131 42.2371 10.9468 42.2371 12.3333V21.1275H33.5999C33.1255 21.1275 32.7344 21.7375 32.7344 22.1916V22.8364C32.7344 22.9369 32.8213 23.0201 32.9263 23.0201H37.5075L37.6849 24.9197C36.9751 24.9647 36.2979 25.1034 35.6714 25.3218C34.8674 25.6025 34.154 26.015 33.5745 26.5211C33.4369 26.6424 33.3862 26.8227 33.4297 26.9856C33.2051 27.1451 33.0603 27.3045 33.0603 27.6927C33.0603 28.081 33.4731 28.5732 33.9801 28.5732C34.4871 28.5732 34.9 28.081 34.9 27.6927C34.9 27.3045 34.7515 27.1416 34.5234 26.9821C34.9543 26.6632 35.4541 26.3963 36.0045 26.2057C36.5948 25.9977 37.2467 25.8729 37.9348 25.8521L38.0362 26.8054L38.0398 26.847C37.6523 26.9509 37.3662 27.2491 37.3662 27.6962C37.3662 28.1434 37.7791 28.5767 38.2861 28.5767C38.7931 28.5767 39.2059 28.1399 39.2059 27.6962C39.2059 27.2525 38.9235 26.9544 38.5396 26.8504L38.5432 26.8054L38.6156 25.8625C39.2711 25.9041 39.894 26.0393 40.459 26.2507H40.4626C41.013 26.4553 41.5092 26.7326 41.9329 27.0688C41.7627 27.2283 41.6577 27.3322 41.6577 27.6962C41.6577 28.0602 42.0705 28.5767 42.5775 28.5767C43.0845 28.5767 43.4974 28.0844 43.4974 27.6962C43.501 27.2976 43.3489 27.1347 43.1171 26.9752ZM35.7474 0.117856C33.8027 0.117856 32.2237 1.62919 32.2237 3.49062C32.2237 5.35206 33.8027 6.86339 35.7474 6.86339C37.6922 6.86339 39.2711 5.35206 39.2711 3.49062C39.2675 1.62919 37.6922 0.117856 35.7474 0.117856ZM34.2807 13.3455L34.3495 17.3457H29.9748C29.0477 17.3457 28.2908 18.0701 28.2908 18.9575V20.5694H28.3089V26.8712C28.3089 27.7586 29.0658 28.4831 29.9929 28.4831H31.6769V21.0304C31.6769 20.3233 31.9557 20.5694 32.7887 20.5694H36.5478V20.559H38.7062C40.1004 20.559 41.2376 19.4671 41.2376 18.136V9.7266C41.2376 8.37126 40.0787 7.26202 38.6627 7.26202H37.3879C34.737 7.26202 35.1571 9.00907 33.9838 10.1079C32.8249 11.1929 33.1146 11.3177 31.532 11.3177H28.1206C26.0853 11.3177 25.5856 13.8654 28.4864 13.8654H31.6153C33.0096 13.8654 33.1291 14.0769 34.2807 13.3455ZM30.9345 14.3854C25.4443 14.3854 21.1891 14.3854 15.6989 14.3854C15.6157 14.3854 15.5505 14.4513 15.5505 14.5275V16.5796C15.5505 16.6593 15.6193 16.7217 15.6989 16.7217C18.5672 16.7217 19.2226 16.7217 22.0945 16.7217V29.3081C22.0945 29.4121 22.185 29.4987 22.2936 29.4987H22.3697H22.3733H24.481H24.4846H24.5607C24.6693 29.4987 24.7599 29.4121 24.7599 29.3081V16.7252C26.6539 16.7252 29.0405 16.7252 30.9345 16.7252C31.0142 16.7252 31.083 16.6593 31.083 16.5831V14.531C31.083 14.4478 31.0142 14.3854 30.9345 14.3854ZM0.46703 12.7493H1.69471C1.94459 12.7493 2.11118 12.9503 2.15101 13.186C2.61456 15.9868 2.86807 18.7877 2.85358 21.585H11.2554C11.5886 21.585 11.8566 21.845 11.8566 22.1604V23.3251H11.3749V29.2907C11.3749 29.3878 11.2916 29.4675 11.1902 29.4675H9.57866C9.47725 29.4675 9.39396 29.3878 9.39396 29.2907V26.6979H2.52403C2.42263 27.4882 2.29949 28.2786 2.15101 29.0689C2.10756 29.3046 1.94459 29.5057 1.69471 29.5057H0.46703C0.217148 29.5057 -0.058084 29.3011 0.010724 29.0689C1.62952 23.6752 1.29273 18.4029 0.010724 13.1895C-0.0472196 12.9538 0.217148 12.7493 0.46703 12.7493ZM9.39758 25.8937V23.3286H2.82823C2.79202 24.4205 2.71234 24.8018 2.58921 25.8937H9.39758ZM7.38404 0C9.32877 0 10.9077 1.51133 10.9077 3.37277C10.9077 5.2342 9.32877 6.74553 7.38404 6.74553C5.43931 6.74553 3.86035 5.2342 3.86035 3.37277C3.86035 1.51133 5.43569 0 7.38404 0Z" fill="white"/>
    </svg>
    