<svg width="19" height="13" viewBox="0 0 19 13" xmlns="http://www.w3.org/2000/svg">
<path d="M4.53632 3.7473e-05H15.635C15.8118 -0.00129312 15.9871 0.0328243 16.1502 0.100332C16.3134 0.167841 16.461 0.267341 16.5843 0.392834C16.8353 0.653785 17.0033 0.981863 17.0677 1.33642L18.9722 10.7577C18.9867 10.8303 18.994 10.9041 18.9941 10.978C18.9916 11.1384 18.9568 11.2966 18.8916 11.4435C18.8265 11.5903 18.7323 11.7228 18.6147 11.8332C18.3977 12.0442 18.1234 12.1882 17.8251 12.2478C17.7287 12.2673 17.6305 12.277 17.5321 12.2767H6.58143C6.54334 12.2767 6.50525 12.2767 6.46862 12.2767H1.84956C1.20937 12.2072 0.957396 11.7405 0.998416 11.1244L2.79008 2.13795C2.89556 1.73646 2.99371 1.31612 3.11823 0.978405C3.1386 0.91491 3.16458 0.853313 3.19587 0.794327L3.2032 0.779833C3.26715 0.657175 3.35076 0.545574 3.45078 0.449362C3.66274 0.241437 3.92992 0.0972015 4.22136 0.0333745C4.32487 0.0113275 4.43044 0.000153231 4.53632 3.7473e-05ZM8.105 6.81238C7.37251 6.03403 8.49468 4.87738 9.30481 5.60935C9.59048 5.86735 10.0065 6.2442 10.2951 6.50075L12.4135 3.90046C13.1899 3.10907 14.4117 4.27152 13.647 5.06871L10.9602 8.26181C10.8068 8.4212 10.5969 8.51566 10.3746 8.52538C10.1523 8.53511 9.93484 8.45936 9.76774 8.31399C9.29456 7.86756 8.59576 7.22547 8.10353 6.81383L8.105 6.81238ZM15.635 0.943619H4.53632C4.49842 0.943665 4.46062 0.94755 4.42352 0.955214C4.31282 0.979663 4.21129 1.03441 4.13053 1.1132C4.07743 1.15905 4.04435 1.22347 4.03823 1.29293C4.26823 3.70914 5.52518 8.16035 6.0892 10.7476C6.12021 10.9218 6.19988 11.084 6.3192 11.2158C6.35434 11.2517 6.39646 11.2802 6.44304 11.2997C6.48961 11.3191 6.53967 11.329 6.59022 11.3288H17.5526C17.5865 11.3283 17.6204 11.3249 17.6537 11.3187C17.7687 11.2956 17.8745 11.2403 17.9584 11.1592C18.0134 11.1107 18.048 11.0434 18.0551 10.9708V10.9346L16.1506 1.51325C16.123 1.34153 16.0457 1.18142 15.928 1.05233C15.8924 1.01553 15.8496 0.986278 15.8023 0.966344C15.7549 0.94641 15.704 0.936213 15.6525 0.936372L15.635 0.943619Z" />
</svg>
