<svg width="250" height="183" viewBox="0 0 250 183"
    xmlns="http://www.w3.org/2000/svg">
    <path d="M20.6137 173.74C16.9337 172.667 14.3654 171.593 12.9087 170.52C11.5287 169.447 10.8387 168.105 10.8387 166.495C10.8387 165.268 11.1837 163.543 11.8737 161.32C12.5637 159.097 13.5604 156.49 14.8637 153.5C16.2437 150.433 17.8537 147.06 19.6937 143.38C21.6104 139.7 23.7571 135.752 26.1337 131.535C24.1404 131.458 22.3387 131.42 20.7287 131.42C19.1954 131.343 17.9304 131.305 16.9337 131.305C17.3937 130.155 18.6971 129.158 20.8437 128.315C22.9904 127.472 25.8271 126.743 29.3537 126.13C32.3437 121.147 35.5254 116.393 38.8987 111.87C42.3487 107.347 45.7987 103.207 49.2487 99.45C52.6987 95.6167 56.1487 92.2817 59.5987 89.445C63.0487 86.5317 66.3454 84.2317 69.4887 82.545C69.5654 82.0083 69.6037 81.5483 69.6037 81.165C69.6804 80.7817 69.7187 80.5133 69.7187 80.36C70.7921 80.36 72.2104 80.6283 73.9737 81.165C75.8137 81.7017 77.5771 82.3533 79.2637 83.12C81.0271 83.8867 82.5604 84.6917 83.8637 85.535C85.2437 86.3017 86.0104 86.9533 86.1637 87.49C83.6337 91.9367 81.1421 98.6067 78.6887 107.5C76.2354 116.317 74.2037 126.897 72.5937 139.24C72.2104 142.307 71.8654 145.795 71.5587 149.705C71.3287 153.615 71.2137 157.985 71.2137 162.815C71.2137 164.502 71.2137 166.227 71.2137 167.99C71.2137 169.753 71.2904 171.593 71.4437 173.51C71.2904 173.587 71.1371 173.625 70.9837 173.625C70.8304 173.625 70.5237 173.625 70.0637 173.625C68.9904 173.625 67.7254 173.433 66.2687 173.05C64.8887 172.743 63.5087 172.322 62.1287 171.785C60.8254 171.325 59.6754 170.788 58.6787 170.175C57.7587 169.562 57.1837 169.025 56.9537 168.565C56.8771 167.568 56.8387 166.572 56.8387 165.575C56.8387 164.655 56.8387 163.658 56.8387 162.585C56.8387 157.832 56.9921 153.002 57.2987 148.095C57.6821 143.188 58.2954 138.128 59.1387 132.915C58.0654 132.838 56.6471 132.762 54.8837 132.685C53.1204 132.532 51.1271 132.417 48.9037 132.34C46.7571 132.263 44.4187 132.187 41.8887 132.11C39.4354 131.957 37.0204 131.842 34.6437 131.765C32.8037 135.215 31.0787 138.665 29.4687 142.115C27.8587 145.488 26.4787 148.9 25.3287 152.35C24.0254 156.03 22.9521 159.71 22.1087 163.39C21.3421 167.07 20.8437 170.52 20.6137 173.74ZM65.0037 104.625C65.3104 103.552 65.6554 102.095 66.0387 100.255C66.4987 98.3383 66.9204 96.345 67.3037 94.275C65.3871 94.965 63.2404 96.23 60.8637 98.07C58.5637 99.91 56.1487 102.21 53.6187 104.97C51.1654 107.653 48.6354 110.72 46.0287 114.17C43.4987 117.543 41.0454 121.147 38.6687 124.98C45.1087 124.443 52.4304 124.098 60.6337 123.945C61.2471 120.725 61.8987 117.543 62.5887 114.4C63.3554 111.18 64.1604 107.922 65.0037 104.625ZM167.538 103.015C167.538 107.232 166.465 111.257 164.318 115.09C162.248 118.923 159.411 122.297 155.808 125.21C152.281 128.047 148.103 130.308 143.273 131.995C138.52 133.682 133.46 134.525 128.093 134.525C126.176 134.525 124.643 134.295 123.493 133.835C122.42 133.298 121.193 132.302 119.813 130.845C115.98 139.202 112.836 146.907 110.383 153.96C108.006 160.937 106.128 167.722 104.748 174.315C101.835 173.625 99.4579 172.398 97.6179 170.635C95.7779 168.948 94.0912 166.802 92.5579 164.195C93.3246 162.738 94.2446 160.822 95.3179 158.445C96.3912 156.068 97.6946 153.155 99.2279 149.705C100.761 146.178 102.525 142 104.518 137.17C106.588 132.263 109.003 126.552 111.763 120.035C112.99 117.045 114.063 114.438 114.983 112.215C115.903 109.992 116.708 107.922 117.398 106.005C118.088 104.012 118.701 102.057 119.238 100.14C119.851 98.2233 120.465 96.115 121.078 93.815C117.475 94.965 114.14 96.3067 111.073 97.84C108.083 99.3733 105.591 100.983 103.598 102.67C102.908 102.21 102.18 101.52 101.413 100.6C100.723 99.68 100.071 98.6833 99.4579 97.61C98.8446 96.46 98.3079 95.31 97.8479 94.16C97.3879 93.01 97.1196 91.975 97.0429 91.055C99.2662 89.5217 102.026 88.1033 105.323 86.8C108.62 85.4967 112.146 84.385 115.903 83.465C119.66 82.4683 123.531 81.7017 127.518 81.165C131.581 80.6283 135.453 80.36 139.133 80.36C143.503 80.36 147.451 80.935 150.978 82.085C154.505 83.1583 157.495 84.6917 159.948 86.685C162.401 88.6783 164.28 91.055 165.583 93.815C166.886 96.575 167.538 99.6417 167.538 103.015ZM147.068 89.215C144.155 89.215 141.165 89.445 138.098 89.905L139.478 91.975C138.711 92.9717 137.753 94.4667 136.603 96.46C135.453 98.4533 134.188 100.868 132.808 103.705C131.428 106.465 129.895 109.57 128.208 113.02C126.598 116.47 124.873 120.112 123.033 123.945C129.013 123.945 134.456 123.408 139.363 122.335C144.27 121.185 148.448 119.652 151.898 117.735C155.425 115.742 158.146 113.442 160.063 110.835C162.056 108.228 163.053 105.43 163.053 102.44C163.053 98.4533 161.711 95.2717 159.028 92.895C156.345 90.4417 152.358 89.215 147.068 89.215ZM241.322 103.015C241.322 107.232 240.249 111.257 238.102 115.09C236.032 118.923 233.195 122.297 229.592 125.21C226.065 128.047 221.887 130.308 217.057 131.995C212.304 133.682 207.244 134.525 201.877 134.525C199.96 134.525 198.427 134.295 197.277 133.835C196.204 133.298 194.977 132.302 193.597 130.845C189.764 139.202 186.62 146.907 184.167 153.96C181.79 160.937 179.912 167.722 178.532 174.315C175.619 173.625 173.242 172.398 171.402 170.635C169.562 168.948 167.875 166.802 166.342 164.195C167.109 162.738 168.029 160.822 169.102 158.445C170.175 156.068 171.479 153.155 173.012 149.705C174.545 146.178 176.309 142 178.302 137.17C180.372 132.263 182.787 126.552 185.547 120.035C186.774 117.045 187.847 114.438 188.767 112.215C189.687 109.992 190.492 107.922 191.182 106.005C191.872 104.012 192.485 102.057 193.022 100.14C193.635 98.2233 194.249 96.115 194.862 93.815C191.259 94.965 187.924 96.3067 184.857 97.84C181.867 99.3733 179.375 100.983 177.382 102.67C176.692 102.21 175.964 101.52 175.197 100.6C174.507 99.68 173.855 98.6833 173.242 97.61C172.629 96.46 172.092 95.31 171.632 94.16C171.172 93.01 170.904 91.975 170.827 91.055C173.05 89.5217 175.81 88.1033 179.107 86.8C182.404 85.4967 185.93 84.385 189.687 83.465C193.444 82.4683 197.315 81.7017 201.302 81.165C205.365 80.6283 209.237 80.36 212.917 80.36C217.287 80.36 221.235 80.935 224.762 82.085C228.289 83.1583 231.279 84.6917 233.732 86.685C236.185 88.6783 238.064 91.055 239.367 93.815C240.67 96.575 241.322 99.6417 241.322 103.015ZM220.852 89.215C217.939 89.215 214.949 89.445 211.882 89.905L213.262 91.975C212.495 92.9717 211.537 94.4667 210.387 96.46C209.237 98.4533 207.972 100.868 206.592 103.705C205.212 106.465 203.679 109.57 201.992 113.02C200.382 116.47 198.657 120.112 196.817 123.945C202.797 123.945 208.24 123.408 213.147 122.335C218.054 121.185 222.232 119.652 225.682 117.735C229.209 115.742 231.93 113.442 233.847 110.835C235.84 108.228 236.837 105.43 236.837 102.44C236.837 98.4533 235.495 95.2717 232.812 92.895C230.129 90.4417 226.142 89.215 220.852 89.215Z" />
    <path d="M52.8965 32.205C52.8965 33.645 52.5665 35.01 51.9065 36.3C51.2765 37.56 50.3915 38.7 49.2515 39.72C48.1115 40.71 46.7765 41.55 45.2465 42.24C43.7165 42.93 42.0515 43.395 40.2515 43.635C40.7015 44.985 41.2415 46.38 41.8715 47.82C42.5315 49.23 43.2365 50.595 43.9865 51.915C44.7365 53.235 45.5165 54.45 46.3265 55.56C47.1365 56.67 47.9315 57.585 48.7115 58.305C48.5615 58.605 48.3365 58.905 48.0365 59.205C47.7665 59.505 47.4365 59.775 47.0465 60.015C46.6865 60.285 46.2965 60.495 45.8765 60.645C45.4865 60.825 45.1115 60.915 44.7515 60.915C44.0915 60.915 43.4615 60.6 42.8615 59.97C42.2615 59.34 41.6465 58.35 41.0165 57C40.4165 55.62 39.7715 53.85 39.0815 51.69C38.4215 49.5 37.6865 46.875 36.8765 43.815C36.5465 43.815 36.2165 43.815 35.8865 43.815C35.5565 43.815 35.3015 43.785 35.1215 43.725C34.9115 43.605 34.6865 43.395 34.4465 43.095C33.6365 44.835 32.9165 46.47 32.2865 48C31.6565 49.53 31.0865 51.015 30.5765 52.455C30.0965 53.865 29.6615 55.245 29.2715 56.595C28.9115 57.915 28.5965 59.265 28.3265 60.645C27.3065 60.405 26.4215 59.97 25.6715 59.34C24.9215 58.71 24.2165 57.825 23.5565 56.685C23.6765 56.415 23.7965 56.16 23.9165 55.92C24.0665 55.65 24.2465 55.29 24.4565 54.84C24.6665 54.36 24.9215 53.76 25.2215 53.04C25.5515 52.32 25.9715 51.36 26.4815 50.16C27.0215 48.96 27.6515 47.49 28.3715 45.75C29.1215 44.01 30.0215 41.895 31.0715 39.405C31.5515 38.295 31.9565 37.32 32.2865 36.48C32.6465 35.64 32.9615 34.845 33.2315 34.095C33.5015 33.315 33.7415 32.55 33.9515 31.8C34.1915 31.02 34.4315 30.135 34.6715 29.145C33.2915 29.625 32.0015 30.165 30.8015 30.765C29.6315 31.335 28.6565 31.95 27.8765 32.61C27.6065 32.43 27.3215 32.16 27.0215 31.8C26.7515 31.44 26.4965 31.05 26.2565 30.63C26.0165 30.18 25.8065 29.73 25.6265 29.28C25.4465 28.83 25.3415 28.425 25.3115 28.065C26.2115 27.465 27.3065 26.91 28.5965 26.4C29.9165 25.89 31.3115 25.455 32.7815 25.095C34.2515 24.705 35.7515 24.405 37.2815 24.195C38.8115 23.985 40.2365 23.88 41.5565 23.88C45.1565 23.88 47.9465 24.63 49.9265 26.13C51.9065 27.6 52.8965 29.625 52.8965 32.205ZM41.9165 28.425C41.7065 28.695 41.3765 29.235 40.9265 30.045C40.4765 30.855 39.9515 31.83 39.3515 32.97C38.7815 34.08 38.1665 35.295 37.5065 36.615C36.8765 37.935 36.2615 39.24 35.6615 40.53C37.9115 40.53 39.9815 40.32 41.8715 39.9C43.7615 39.48 45.3965 38.895 46.7765 38.145C48.1565 37.365 49.2215 36.465 49.9715 35.445C50.7515 34.395 51.1415 33.24 51.1415 31.98C51.1415 30.48 50.6015 29.34 49.5215 28.56C48.4415 27.75 46.7765 27.345 44.5265 27.345C44.0165 27.345 43.5065 27.375 42.9965 27.435C42.4865 27.465 41.9465 27.51 41.3765 27.57L41.9165 28.425ZM67.4501 38.37C67.3301 40.23 67.0001 41.835 66.4601 43.185C65.9201 44.505 65.1401 45.675 64.1201 46.695C63.1301 47.685 61.9151 48.585 60.4751 49.395C59.0351 50.205 57.3551 50.985 55.4351 51.735C55.4351 51.915 55.4201 52.11 55.3901 52.32C55.3901 52.5 55.3901 52.695 55.3901 52.905C55.3901 53.295 55.4201 53.7 55.4801 54.12C55.5401 54.54 55.6451 54.93 55.7951 55.29C55.9451 55.65 56.1551 55.95 56.4251 56.19C56.6951 56.4 57.0401 56.505 57.4601 56.505C58.2701 56.505 59.0651 56.325 59.8451 55.965C60.6251 55.605 61.3601 55.17 62.0501 54.66C62.7701 54.12 63.4301 53.55 64.0301 52.95C64.6601 52.32 65.2151 51.75 65.6951 51.24C65.9951 51.51 66.2501 51.765 66.4601 52.005C65.1101 53.805 63.6251 55.305 62.0051 56.505C60.4151 57.675 58.9001 58.425 57.4601 58.755C55.3901 58.515 53.7701 57.765 52.6001 56.505C51.4601 55.215 50.8901 53.67 50.8901 51.87C50.8901 50.64 51.0551 49.395 51.3851 48.135C51.7451 46.845 52.2251 45.615 52.8251 44.445C53.4551 43.245 54.1751 42.12 54.9851 41.07C55.8251 40.02 56.7101 39.105 57.6401 38.325C58.6001 37.545 59.5751 36.93 60.5651 36.48C61.5851 36.03 62.5901 35.805 63.5801 35.805C64.9601 35.985 66.2501 36.84 67.4501 38.37ZM64.3451 39.855C63.5351 39.975 62.6951 40.305 61.8251 40.845C60.9551 41.385 60.1301 42.105 59.3501 43.005C58.6001 43.905 57.9101 44.955 57.2801 46.155C56.6501 47.355 56.1551 48.645 55.7951 50.025C58.1951 48.825 60.1901 47.355 61.7801 45.615C63.3701 43.845 64.2251 41.925 64.3451 39.855ZM85.0585 38.82C85.3585 38.82 85.7035 38.88 86.0935 39C86.5135 39.09 86.8885 39.225 87.2185 39.405C87.5485 39.555 87.8185 39.72 88.0285 39.9C88.2685 40.08 88.3885 40.245 88.3885 40.395C87.7885 41.655 87.2335 42.93 86.7235 44.22C86.2135 45.48 85.7785 46.695 85.4185 47.865C85.0585 49.035 84.7735 50.13 84.5635 51.15C84.3835 52.17 84.2935 53.055 84.2935 53.805C84.2935 54.645 84.3835 55.35 84.5635 55.92C84.7435 56.46 85.0435 56.85 85.4635 57.09C85.1035 57.33 84.6385 57.525 84.0685 57.675C83.4985 57.825 82.9885 57.9 82.5385 57.9C80.9185 57.9 80.1085 56.79 80.1085 54.57C80.1085 52.86 80.6785 50.52 81.8185 47.55C81.2185 48.93 80.5285 50.235 79.7485 51.465C78.9685 52.665 78.1735 53.73 77.3635 54.66C76.5535 55.59 75.7285 56.355 74.8885 56.955C74.0785 57.525 73.3285 57.87 72.6385 57.99C71.5285 57.93 70.6285 57.405 69.9385 56.415C69.2485 55.395 68.9035 54.105 68.9035 52.545C68.9035 50.865 69.2635 49.095 69.9835 47.235C70.7035 45.375 71.6185 43.65 72.7285 42.06C73.8685 40.47 75.0985 39.15 76.4185 38.1C77.7385 37.02 79.0135 36.45 80.2435 36.39C80.5435 36.48 80.8735 36.66 81.2335 36.93C81.6235 37.2 81.9835 37.515 82.3135 37.875C82.6735 38.235 82.9735 38.61 83.2135 39C83.4535 39.36 83.5885 39.675 83.6185 39.945C82.4185 40.125 81.1735 40.71 79.8835 41.7C78.6235 42.69 77.4685 43.89 76.4185 45.3C75.3985 46.68 74.5585 48.165 73.8985 49.755C73.2385 51.345 72.9085 52.83 72.9085 54.21C72.9085 54.78 73.1185 55.14 73.5385 55.29C74.4085 55.11 75.4135 54.375 76.5535 53.085C77.6935 51.765 79.0735 49.74 80.6935 47.01C80.9935 46.47 81.3235 45.87 81.6835 45.21C82.0735 44.55 82.4635 43.86 82.8535 43.14C83.2435 42.42 83.6185 41.7 83.9785 40.98C84.3685 40.23 84.7285 39.51 85.0585 38.82ZM90.5896 49.08C90.5896 47.37 90.9346 45.72 91.6246 44.13C92.3446 42.51 93.2746 41.085 94.4146 39.855C95.5846 38.595 96.9046 37.59 98.3746 36.84C99.8746 36.06 101.42 35.67 103.01 35.67C104.57 35.67 105.77 36.06 106.61 36.84C107.45 37.62 107.87 38.73 107.87 40.17C107.87 40.86 107.765 41.535 107.555 42.195C107.375 42.825 107.12 43.395 106.79 43.905C106.49 44.415 106.13 44.835 105.71 45.165C105.29 45.465 104.87 45.615 104.45 45.615C104.09 45.615 103.715 45.51 103.325 45.3C102.965 45.06 102.665 44.76 102.425 44.4C104.435 42.57 105.44 40.905 105.44 39.405C105.44 38.535 105.095 38.1 104.405 38.1C103.805 38.1 103.055 38.385 102.155 38.955C101.255 39.525 100.385 40.275 99.5446 41.205C98.2546 42.645 97.2646 44.25 96.5746 46.02C95.9146 47.76 95.5846 49.59 95.5846 51.51C95.5846 53.94 96.1246 55.395 97.2046 55.875C97.6546 55.815 98.1796 55.68 98.7796 55.47C99.3796 55.26 100.025 54.99 100.715 54.66C101.405 54.3 102.11 53.895 102.83 53.445C103.58 52.995 104.3 52.515 104.99 52.005C105.11 52.095 105.215 52.23 105.305 52.41C105.395 52.59 105.44 52.755 105.44 52.905C104.93 53.535 104.345 54.15 103.685 54.75C103.025 55.35 102.335 55.905 101.615 56.415C100.895 56.895 100.19 57.3 99.4996 57.63C98.8396 57.99 98.2546 58.215 97.7446 58.305C96.7546 58.215 95.8246 57.9 94.9546 57.36C94.0846 56.85 93.3196 56.175 92.6596 55.335C92.0296 54.495 91.5196 53.535 91.1296 52.455C90.7696 51.375 90.5896 50.25 90.5896 49.08ZM111.695 39.765C111.545 39.585 111.41 39.21 111.29 38.64C111.17 38.04 111.11 37.53 111.11 37.11C111.89 37.17 112.64 37.23 113.36 37.29C114.08 37.32 114.74 37.35 115.34 37.38C115.79 36.48 116.27 35.595 116.78 34.725C117.32 33.825 117.83 33.015 118.31 32.295C118.82 31.545 119.285 30.915 119.705 30.405C120.155 29.895 120.5 29.565 120.74 29.415C121.04 29.415 121.415 29.475 121.865 29.595C122.345 29.685 122.825 29.82 123.305 30C123.785 30.15 124.22 30.315 124.61 30.495C125 30.675 125.27 30.855 125.42 31.035C124.52 32.175 123.74 33.24 123.08 34.23C122.45 35.19 121.76 36.3 121.01 37.56C121.61 37.56 122.21 37.545 122.81 37.515C123.44 37.485 124.07 37.44 124.7 37.38C124.85 37.53 124.97 37.725 125.06 37.965C125.15 38.175 125.195 38.4 125.195 38.64C123.725 39.18 121.94 39.48 119.84 39.54C119.09 40.98 118.415 42.42 117.815 43.86C117.245 45.27 116.75 46.635 116.33 47.955C115.94 49.275 115.625 50.52 115.385 51.69C115.175 52.86 115.07 53.91 115.07 54.84C115.07 56.16 115.565 56.895 116.555 57.045C117.455 56.925 118.31 56.7 119.12 56.37C119.93 56.04 120.65 55.62 121.28 55.11C121.46 55.38 121.565 55.605 121.595 55.785C121.415 56.055 121.1 56.37 120.65 56.73C120.23 57.09 119.765 57.435 119.255 57.765C118.745 58.125 118.25 58.425 117.77 58.665C117.29 58.905 116.93 59.04 116.69 59.07C115.94 59.04 115.19 58.875 114.44 58.575C113.69 58.275 113 57.9 112.37 57.45C111.77 57 111.275 56.505 110.885 55.965C110.495 55.395 110.3 54.84 110.3 54.3C110.3 53.58 110.39 52.68 110.57 51.6C110.78 50.49 111.065 49.29 111.425 48C111.785 46.71 112.205 45.36 112.685 43.95C113.165 42.54 113.69 41.145 114.26 39.765H111.695ZM137.608 48.18C137.608 46.08 137.848 44.025 138.328 42.015C138.838 39.975 139.543 38.055 140.443 36.255C141.343 34.425 142.408 32.76 143.638 31.26C144.898 29.73 146.263 28.41 147.733 27.3C149.233 26.19 150.823 25.335 152.503 24.735C154.183 24.105 155.908 23.79 157.678 23.79C159.748 23.79 161.353 24.225 162.493 25.095C163.663 25.965 164.248 27.18 164.248 28.74C164.248 29.34 164.158 29.955 163.978 30.585C163.828 31.215 163.588 31.845 163.258 32.475C162.958 33.075 162.598 33.66 162.178 34.23C161.758 34.8 161.293 35.295 160.783 35.715C160.003 35.595 159.328 35.25 158.758 34.68C158.188 34.08 157.828 33.39 157.678 32.61C158.728 31.74 159.553 30.84 160.153 29.91C160.783 28.95 161.098 28.08 161.098 27.3C161.098 25.98 160.273 25.32 158.623 25.32C157.933 25.32 157.213 25.47 156.463 25.77C155.743 26.04 155.008 26.43 154.258 26.94C153.508 27.45 152.773 28.065 152.053 28.785C151.363 29.505 150.718 30.3 150.118 31.17C145.948 37.17 143.863 43.305 143.863 49.575C143.863 51.795 144.208 53.58 144.898 54.93C145.588 56.28 146.503 57.075 147.643 57.315C148.933 57.015 150.568 56.19 152.548 54.84C154.528 53.49 156.688 51.735 159.028 49.575C159.328 49.875 159.508 50.19 159.568 50.52C158.698 51.66 157.798 52.755 156.868 53.805C155.938 54.855 155.008 55.815 154.078 56.685C153.178 57.555 152.278 58.32 151.378 58.98C150.508 59.64 149.698 60.15 148.948 60.51C145.228 60.45 142.408 59.385 140.488 57.315C138.568 55.245 137.608 52.2 137.608 48.18ZM162.477 54.12C162.477 52.8 162.792 50.955 163.422 48.585C164.052 46.185 164.937 43.395 166.077 40.215C167.937 35.145 169.677 30.93 171.297 27.57C172.947 24.18 174.552 21.54 176.112 19.65C176.472 19.71 176.907 19.86 177.417 20.1C177.957 20.34 178.482 20.61 178.992 20.91C179.502 21.18 179.952 21.465 180.342 21.765C180.762 22.065 181.032 22.305 181.152 22.485C178.812 25.245 176.757 28.215 174.987 31.395C173.217 34.575 171.597 38.22 170.127 42.33C168.867 45.87 167.907 49.065 167.247 51.915C166.587 54.735 166.257 57.09 166.257 58.98C166.257 59.49 166.257 59.805 166.257 59.925C166.257 60.045 166.272 60.165 166.302 60.285C165.882 60.225 165.522 60.12 165.222 59.97C164.922 59.82 164.727 59.64 164.637 59.43C164.577 59.28 164.412 59.055 164.142 58.755C163.872 58.485 163.632 58.275 163.422 58.125C163.152 57.945 162.927 57.48 162.747 56.73C162.567 55.95 162.477 55.08 162.477 54.12ZM189.091 38.37C188.971 40.23 188.641 41.835 188.101 43.185C187.561 44.505 186.781 45.675 185.761 46.695C184.771 47.685 183.556 48.585 182.116 49.395C180.676 50.205 178.996 50.985 177.076 51.735C177.076 51.915 177.061 52.11 177.031 52.32C177.031 52.5 177.031 52.695 177.031 52.905C177.031 53.295 177.061 53.7 177.121 54.12C177.181 54.54 177.286 54.93 177.436 55.29C177.586 55.65 177.796 55.95 178.066 56.19C178.336 56.4 178.681 56.505 179.101 56.505C179.911 56.505 180.706 56.325 181.486 55.965C182.266 55.605 183.001 55.17 183.691 54.66C184.411 54.12 185.071 53.55 185.671 52.95C186.301 52.32 186.856 51.75 187.336 51.24C187.636 51.51 187.891 51.765 188.101 52.005C186.751 53.805 185.266 55.305 183.646 56.505C182.056 57.675 180.541 58.425 179.101 58.755C177.031 58.515 175.411 57.765 174.241 56.505C173.101 55.215 172.531 53.67 172.531 51.87C172.531 50.64 172.696 49.395 173.026 48.135C173.386 46.845 173.866 45.615 174.466 44.445C175.096 43.245 175.816 42.12 176.626 41.07C177.466 40.02 178.351 39.105 179.281 38.325C180.241 37.545 181.216 36.93 182.206 36.48C183.226 36.03 184.231 35.805 185.221 35.805C186.601 35.985 187.891 36.84 189.091 38.37ZM185.986 39.855C185.176 39.975 184.336 40.305 183.466 40.845C182.596 41.385 181.771 42.105 180.991 43.005C180.241 43.905 179.551 44.955 178.921 46.155C178.291 47.355 177.796 48.645 177.436 50.025C179.836 48.825 181.831 47.355 183.421 45.615C185.011 43.845 185.866 41.925 185.986 39.855ZM206.699 38.82C206.999 38.82 207.344 38.88 207.734 39C208.154 39.09 208.529 39.225 208.859 39.405C209.189 39.555 209.459 39.72 209.669 39.9C209.909 40.08 210.029 40.245 210.029 40.395C209.429 41.655 208.874 42.93 208.364 44.22C207.854 45.48 207.419 46.695 207.059 47.865C206.699 49.035 206.414 50.13 206.204 51.15C206.024 52.17 205.934 53.055 205.934 53.805C205.934 54.645 206.024 55.35 206.204 55.92C206.384 56.46 206.684 56.85 207.104 57.09C206.744 57.33 206.279 57.525 205.709 57.675C205.139 57.825 204.629 57.9 204.179 57.9C202.559 57.9 201.749 56.79 201.749 54.57C201.749 52.86 202.319 50.52 203.459 47.55C202.859 48.93 202.169 50.235 201.389 51.465C200.609 52.665 199.814 53.73 199.004 54.66C198.194 55.59 197.369 56.355 196.529 56.955C195.719 57.525 194.969 57.87 194.279 57.99C193.169 57.93 192.269 57.405 191.579 56.415C190.889 55.395 190.544 54.105 190.544 52.545C190.544 50.865 190.904 49.095 191.624 47.235C192.344 45.375 193.259 43.65 194.369 42.06C195.509 40.47 196.739 39.15 198.059 38.1C199.379 37.02 200.654 36.45 201.884 36.39C202.184 36.48 202.514 36.66 202.874 36.93C203.264 37.2 203.624 37.515 203.954 37.875C204.314 38.235 204.614 38.61 204.854 39C205.094 39.36 205.229 39.675 205.259 39.945C204.059 40.125 202.814 40.71 201.524 41.7C200.264 42.69 199.109 43.89 198.059 45.3C197.039 46.68 196.199 48.165 195.539 49.755C194.879 51.345 194.549 52.83 194.549 54.21C194.549 54.78 194.759 55.14 195.179 55.29C196.049 55.11 197.054 54.375 198.194 53.085C199.334 51.765 200.714 49.74 202.334 47.01C202.634 46.47 202.964 45.87 203.324 45.21C203.714 44.55 204.104 43.86 204.494 43.14C204.884 42.42 205.259 41.7 205.619 40.98C206.009 40.23 206.369 39.51 206.699 38.82ZM219.602 35.175C220.382 35.415 221.117 35.955 221.807 36.795C222.497 37.605 223.007 38.505 223.337 39.495C223.007 40.305 222.497 41.28 221.807 42.42C221.117 43.56 220.427 44.73 219.737 45.93C219.047 47.1 218.417 48.225 217.847 49.305C217.307 50.355 216.992 51.225 216.902 51.915C217.382 51.405 217.907 50.82 218.477 50.16C219.077 49.47 219.647 48.795 220.187 48.135C220.757 47.445 221.282 46.83 221.762 46.29C222.242 45.72 222.617 45.3 222.887 45.03C223.457 44.43 224.132 43.74 224.912 42.96C225.692 42.15 226.502 41.4 227.342 40.71C228.212 39.99 229.082 39.39 229.952 38.91C230.822 38.4 231.617 38.145 232.337 38.145C233.117 38.145 233.762 38.415 234.272 38.955C234.812 39.465 235.232 40.005 235.532 40.575C235.532 40.635 235.412 40.725 235.172 40.845C234.962 40.935 234.647 41.22 234.227 41.7C233.807 42.24 233.327 42.99 232.787 43.95C232.277 44.88 231.767 45.9 231.257 47.01C230.777 48.09 230.372 49.2 230.042 50.34C229.712 51.48 229.547 52.515 229.547 53.445C229.547 54.195 229.637 54.675 229.817 54.885C230.027 55.095 230.312 55.2 230.672 55.2C231.002 55.2 231.347 55.125 231.707 54.975C232.067 54.825 232.352 54.75 232.562 54.75C232.682 54.81 232.772 54.945 232.832 55.155C232.922 55.335 232.967 55.5 232.967 55.65C232.727 55.86 232.442 56.07 232.112 56.28C231.782 56.49 231.437 56.685 231.077 56.865C230.717 57.045 230.357 57.195 229.997 57.315C229.667 57.435 229.367 57.495 229.097 57.495C228.227 57.495 227.507 57.36 226.937 57.09C226.397 56.85 225.962 56.52 225.632 56.1C225.332 55.68 225.122 55.185 225.002 54.615C224.882 54.015 224.822 53.385 224.822 52.725C224.822 52.365 224.852 51.96 224.912 51.51C224.972 51.06 225.092 50.535 225.272 49.935C225.452 49.305 225.707 48.57 226.037 47.73C226.367 46.86 226.787 45.825 227.297 44.625C227.237 44.625 226.832 44.835 226.082 45.255C225.332 45.675 224.522 46.32 223.652 47.19C222.242 48.54 220.967 49.875 219.827 51.195C218.717 52.515 217.577 53.985 216.407 55.605C215.747 56.535 215.162 57.315 214.652 57.945C214.172 58.605 213.752 59.04 213.392 59.25C212.762 58.89 212.297 58.38 211.997 57.72C211.697 57.09 211.472 56.43 211.322 55.74C211.322 55.17 211.397 54.45 211.547 53.58C211.727 52.71 211.952 51.75 212.222 50.7C212.522 49.62 212.882 48.495 213.302 47.325C213.722 46.155 214.187 44.985 214.697 43.815C215.837 41.175 216.872 39.105 217.802 37.605C218.762 36.105 219.362 35.295 219.602 35.175Z" />
</svg>
